/* XPM */
static char *b24598f905c34d52f94ff306ada34a1eZj6rTa3xeHdbjo6S[] = {
/* columns rows colors chars-per-pixel */
"50 50 155 2 ",
"   c #0E1112",
".  c #161616",
"X  c #181717",
"o  c #191B1B",
"O  c #341C1C",
"+  c #1A221C",
"@  c #1E2521",
"#  c #1D2C21",
"$  c #212121",
"%  c #2C2623",
"&  c #222B26",
"*  c #2F2925",
"=  c #232D28",
"-  c #362C28",
";  c #26322B",
":  c #29352E",
">  c #233C2A",
",  c #38302D",
"<  c #292B32",
"1  c #2C3233",
"2  c #2C3B33",
"3  c #2F3138",
"4  c #3B3430",
"5  c #303F37",
"6  c #4A3529",
"7  c #7D3B39",
"8  c #26422E",
"9  c #354E2A",
"0  c #3A542D",
"q  c #294A32",
"w  c #32433A",
"e  c #314F3B",
"r  c #2F563A",
"t  c #315A3D",
"y  c #4E423B",
"u  c #5C4031",
"i  c #654635",
"p  c #393B43",
"a  c #394E43",
"s  c #3E414A",
"d  c #366544",
"f  c #386947",
"g  c #3A6D4A",
"h  c #3E754E",
"j  c #42454E",
"k  c #574B42",
"l  c #5A4C44",
"z  c #4A5E41",
"x  c #435A4E",
"c  c #5A564C",
"v  c #5A584C",
"b  c #424552",
"n  c #454956",
"m  c #4A4D57",
"M  c #4B4F59",
"N  c #455D50",
"B  c #4B5858",
"V  c #5F5B5E",
"C  c #634840",
"Z  c #6C534A",
"A  c #635457",
"S  c #6A5A51",
"D  c #487241",
"F  c #43774D",
"G  c #407751",
"H  c #4B7250",
"J  c #427C53",
"K  c #746158",
"L  c #7E6A5F",
"P  c #525663",
"I  c #515E60",
"U  c #565B69",
"Y  c #5A5D69",
"T  c #5C616E",
"R  c #5F6370",
"E  c #646875",
"W  c #6A6F7D",
"Q  c #833737",
"!  c #8E3B3B",
"~  c #953E3E",
"^  c #89403E",
"/  c #84484E",
"(  c #815E4A",
")  c #935045",
"_  c #9F574A",
"`  c #844D54",
"'  c #885056",
"]  c #A1594C",
"[  c #8F6851",
"{  c #986B51",
"}  c #A8765A",
"|  c #B17C5C",
" . c #907A6D",
".. c #B47F60",
"X. c #5C8946",
"o. c #5A8B4B",
"O. c #448056",
"+. c #4C8356",
"@. c #468459",
"#. c #4B845D",
"$. c #4A8B5D",
"%. c #538750",
"&. c #568B52",
"*. c #51885F",
"=. c #5D9253",
"-. c #5C9B5F",
";. c #609553",
":. c #659C56",
">. c #6EA252",
",. c #67A25C",
"<. c #6BA55B",
"1. c #75AC57",
"2. c #78AF56",
"3. c #73AB58",
"4. c #4C8F60",
"5. c #4D9262",
"6. c #529561",
"7. c #5A9A60",
"8. c #978577",
"9. c #9C867A",
"0. c #9D887C",
"q. c #B48163",
"w. c #BA8667",
"e. c #BD8969",
"r. c #C38865",
"t. c #C78F6D",
"y. c #CC926F",
"u. c #D5956F",
"i. c #CA9170",
"p. c #D69670",
"a. c #D79A76",
"s. c #DA9B76",
"d. c #DB9F7A",
"f. c #DEA07B",
"g. c #6E7381",
"h. c #707584",
"j. c #AF9485",
"k. c #B79B8B",
"l. c #B89B8B",
"z. c #D1A48C",
"x. c #D5A991",
"c. c #CEB09F",
"v. c #DEB59E",
"b. c #E0B095",
"n. c #E2B59D",
"m. c #DEB7A2",
"M. c #DEBBA8",
"N. c #E0B7A1",
"B. c #E3BBA6",
"V. c #E0BDAA",
"C. c #E4C1AD",
"Z. c #EAC4AF",
"A. c #E5C6B4",
"S. c #EBC9B5",
"D. c #EDCDBB",
/* pixels */
"5.5.5.5.5.5.5.5.5.5.5.5.5.5.5.5.5.5.O.$.J 5.5.5.5.5.5.5.5.5.5.5.5.5.5.5.5.5.5.5.5.5.5.5.5.5.5.5.5.5.",
"5.5.5.5.5.5.5.5.5.5.5.5.5.5.5.5.5.5.+ o + + + q 5.5.5.5.5.f + + + + + J 5.5.5.5.5.5.5.5.5.5.5.5.5.5.",
"5.5.5.5.5.5.5.5.5.5.5.5.5.5.5.5.5.5.. . . . . q 5.5.5.5.5.d . . . . . J 5.5.5.5.5.5.5.5.5.5.5.5.5.5.",
"5.5.5.5.5.5.5.5.5.5.5.5.5.5.5.4.4.$.4 4 , . . q 6.5.5.5.5.d . . * , , J 4.4.5.5.5.5.5.5.5.5.5.5.5.5.",
"5.5.5.5.5.5.5.5.5.5.5.5.5.5.5.# . % D.D.A.. . 9 ,.5.5.5.5.d . . l.V.V.L . . @.5.5.5.5.5.5.5.5.5.5.5.",
"5.5.5.5.5.5.5.5.5.5.5.5.5.5.5.# . % D.D.A.. . 0 ,.5.5.5.5.d . . k.V.V.L . . @.5.5.5.5.5.5.5.5.5.5.5.",
"5.5.5.5.5.5.5.5.5.5.5.5.5.5.5.# . % D.D.A.. . 9 $.$.$.$.$.d . . k.V.V. .l l +.$.$.5.5.5.5.5.5.5.5.5.",
"5.5.5.5.5.5.5.5.5.5.5.5.5.5.5.# . % D.D.A.. . . . . . . . . . . k.V.V.V.V.V.S . . $.5.5.5.5.5.5.5.5.",
"5.5.5.5.5.5.5.5.5.5.5.5.5.5.5.# . % D.D.A.. . . . . . . . . . . k.V.V.V.V.V.S . . $.5.5.5.5.5.5.5.5.",
"5.5.5.5.5.5.5.5.5.5.5.5.J h h 8.9.0.D.D.A.9.9.9.9.9.9.9.9.9.9.9.c.A.A.V.V.V.S . . $.5.5.5.5.5.5.5.5.",
"5.5.5.5.5.5.5.5.5.5.5.5.8 .   A.D.D.D.D.D.D.D.D.D.D.D.D.D.D.D.D.D.D.D.C.V.V.S . . $.5.5.5.5.5.5.5.5.",
"5.5.5.5.5.5.5.5.5.5.5.5.8 .   A.D.D.D.D.D.D.D.D.D.D.D.D.D.D.D.D.D.D.D.C.V.V.S . . $.5.5.5.5.5.5.5.5.",
"5.5.5.5.5.5.5.5.5.5.5.5.8 .   A.D.D.D.D.D.n.n.n.n.n.n.n.n.n.n.n.n.n.n.C.A.A.j.9.9.H g h 5.5.5.5.5.5.",
"5.5.5.5.5.5.5.5.5.5.5.5.8 .   A.D.D.D.D.S.u.u.u.u.u.u.u.u.u.u.u.u.u.u.C.D.D.C.V.V.y . 8 5.5.5.5.5.5.",
"5.5.5.5.5.5.5.5.5.5.5.5.8 .   A.D.D.D.D.S.u.u.u.u.u.u.u.u.u.u.u.u.u.u.C.D.D.C.V.V.y . 8 5.5.5.5.5.5.",
"5.5.5.5.5.5.5.5.5.5.5.5.8 .   A.D.D.b.b.b.s.s.y.{ { | s.s.s.s.s...{ { z.n.n.B.V.V.y . 8 5.5.5.5.5.5.",
"5.5.5.5.5.5.5.5.5.5.5.5.8 .   A.D.D.u.u.p.f.f.i.$ $ ( f.f.f.f.f.[ $ $ w.a.a.m.V.V.y . 8 5.5.5.5.5.5.",
"5.5.5.6.5.5.5.5.5.5.5.5.8 .   A.D.D.u.u.p.f.f.i.$ $ ( f.f.f.f.f.[ $ $ w.a.a.m.V.V.y . 8 5.5.5.5.5.6.",
"5.5.6.3.5.5.5.5.5.5.5.5.8 .   A.D.D.u.u.p.f.f.i.$ $ ( f.f.f.f.f.[ $ $ w.a.a.m.V.V.y . 8 5.5.5.6.6.<.",
"5.5.6.3.6.-.5.5.5.5.5.5.8 .   A.D.D.u.u.p.f.f.i.$ $ ( f.f.f.f.f.[ $ $ w.a.a.m.V.V.y . 8 5.5.5.-.<.<.",
"5.5.6.3.-.<.5.5.5.5.5.5.8 .   A.D.D.u.u.p.f.f.i.$ $ ( f.f.f.f.f.[ $ $ w.a.a.m.V.V.y . 8 5.5.5.-.<.-.",
"5.5.5.-.-.<.5.5.5.5.5.5.8 .   A.D.D.B.B.B.f.f.s.e.e.y.f.f.f.f.f.i.e.e.x.v.v.M.V.V.y . 8 5.5.5.6.7.5.",
"5.5.5.5.6.6.5.5.5.5.5.5.8 .   A.D.D.D.D.S.f.f.f.f.f.f.f.f.f.f.f.f.f.f.v.V.V.V.V.V.y . 8 5.5.5.5.5.5.",
"5.5.5.5.5.5.5.5.5.5.5.5.8 .   A.D.D.D.D.S.f.f.f.f.f.f.f.f.f.f.f.f.f.f.v.V.V.V.V.V.y . 8 5.5.5.5.5.5.",
"5.5.5.5.5.5.h q q q q 0 + .   A.D.D.D.D.D.Z.Z.Z.Z.Z.Z.Z.Z.Z.Z.Z.B.N.N.V.V.V. .K K +.O.@.5.5.5.5.5.5.",
"5.5.5.5.5.5.g . . . . . . .   A.D.D.D.D.D.D.D.D.D.D.D.D.D.D.D.D.A.V.V.V.V.V.S . . $.5.5.5.5.5.5.5.5.",
"5.5.5.5.5.5.g o o o o o . .   A.D.D.D.D.D.D.D.D.D.D.D.D.D.D.D.D.C.M.M.M.M.M.S + o $.5.5.5.5.5.5.5.5.",
"5.5.5.h . . w N N N N N & . . X X X X X X X X X X X X X X X X X X X X X X X @.5.5.5.5.5.5.5.5.5.5.5.",
"5.5.5.h . . w N N N N N & . . . . . . . . . . . . . . . . . . . . . . . . . @.5.5.5.5.5.5.5.5.5.5.5.",
"5.5.5.h . . w N N x x x - O O O O O O O O @ @ $ O O O O O O O O % @ @ o . . J $.$.5.5.5.5.5.5.5.5.5.",
"5.5.3.X.. . w N N 5 . . Q ! ! ! ! ! ! ! ^ N N v ! ! ! ! ! ~ ~ ~ Z N N : . . . . . $.5.5.5.5.5.5.5.5.",
"5.5.6.X.. . w N N 5 . . Q ! ! ! ! ! ! ! ^ N N v ! ! ! ! ! ~ ~ ~ Z N N : . . . . . $.5.6.6.5.5.5.5.5.",
"5.5.5.F . . w x x 2 . . ) _ _ ] ] ] Q Q 7 x x c ~ ~ ! ! ! ~ ~ ~ Z x x : . . u i i +.@.;.2.-.5.-.6.5.",
"5.5.5.g . . 2 a a : . . t.a.a.f.f.d.X . + a a k ~ ~ ~ ! ! ! ! ! C a a = . . r.u.u.6 . 8 ,.2.,.2.:.5.",
"5.5.5.h . . 2 a a : . . t.a.a.f.f.d.X . + a a k ~ ~ ~ ! ! ! ! ! C a a = . . r.u.u.6 . 8 5.;.2.=.5.5.",
"5.5.5.h . . 2 a a : . . t.a.a.f.f.d.X . + a a k ~ ~ ~ ~ ~ ! ! ! C a a = . . r.u.u.6 . 8 5.G &.$.5.5.",
"5.5.5.h . . 2 a a : . . t.a.a.f.f.d.X . + a a k ~ ~ ~ ~ ~ ~ ! ! C a a = . . r.u.u.6 . 8 5.$.$.5.5.5.",
"5.5.5.h . . 2 a a : . . t.a.a.f.f.d.X . + a a k ~ ~ ~ ~ ~ ~ ! ! C a a = . . r.u.u.6 . 8 5.5.5.5.5.5.",
"5.5.5.J t t e w w 2 ; ; } q.q.w.w.w.n n n I I V ' ' ` / / ` ` ` A B B 1 . . } | | z t d 5.5.5.5.5.5.",
"5.5.5.5.5.5.g . . 2 a a @ . . . . o h.h.h.h.h.g.E E R P P T E E E E E p . . . . . $.5.5.5.5.5.5.5.5.",
"5.5.5.5.5.5.g . . 2 a a @ . . . . o h.h.h.h.h.g.E E R P P T E E E E E p . . . . . $.5.5.5.5.5.5.5.5.",
"5.5.5.5.5.5.@.h h t : : o . . . . o h.h.g.M M m j j j p p s j j Y E E p . . f h h 4.5.5.5.5.5.5.5.5.",
"5.5.5.5.5.5.5.5.5.d . . . . . . . o h.h.W . . . . . . . . . . . P E E p . . @.5.5.5.5.5.5.5.5.5.5.5.",
"5.5.5.5.5.5.5.5.5.d . . . . . . . o h.h.W . . . . . . . . . . . P E E p . . @.5.5.5.5.5.5.5.5.5.5.5.",
"5.5.5.5.5.5.5.5.5.@.J J J J J + . o U U P . . > J J o.J J r . . b P P 3 . . @.5.5.5.5.5.5.5.5.5.5.5.",
"5.5.5.5.5.5.5.5.5.5.5.5.5.5.5.# . o n n b . . q 5.5.3.1.5.d . . p n n < . . @.5.5.5.5.5.5.5.5.5.5.5.",
"5.5.5.5.5.5.5.5.5.5.5.5.5.5.5.# . o n n b . . q 5.5.<.1.$.D . . p n n < . . @.5.5.5.5.5.5.5.5.5.5.5.",
"5.5.5.5.5.5.5.5.5.5.5.5.5.5.5.O.+.=.*.#.#.O.O.@.5.5.5.:.;.>.%.O.#.#.#.O.O.O.4.5.5.5.5.5.5.5.5.5.5.5.",
"5.5.5.5.5.5.5.5.5.5.5.5.5.5.5.5.-.<.<.-.5.5.5.5.5.5.5.@.:.=.$.5.5.5.5.5.5.5.5.5.5.5.5.5.5.5.5.5.5.5.",
"5.5.5.5.5.5.5.5.5.5.5.5.5.5.5.5.6.-.<.-.5.5.5.5.5.5.5.5.@.$.5.5.5.5.5.5.5.5.5.5.5.5.5.5.5.5.5.5.5.5."
};
