/* XPM */
static char *_4f94f94f7f14a2af76ea17202446df18BNjy0wkEEI3jTP6[] = {
/* columns rows colors chars-per-pixel */
"50 50 186 2 ",
"   c #407751",
".  c #417A52",
"X  c #4E814F",
"o  c #458157",
"O  c #4B8253",
"+  c #4F8A57",
"@  c #468459",
"#  c #49875A",
"$  c #4A8B5D",
"%  c #5A8656",
"&  c #548B54",
"*  c #508D5D",
"=  c #5B9254",
"-  c #52905F",
";  c #5D915E",
":  c #5B9B5F",
">  c #738A53",
",  c #609553",
"<  c #659952",
"1  c #699D53",
"2  c #64945F",
"3  c #6B945D",
"4  c #629F5D",
"5  c #72965D",
"6  c #7D975B",
"7  c #67A25C",
"8  c #6BA55B",
"9  c #6FA859",
"0  c #75AC57",
"q  c #78AF56",
"w  c #73AB58",
"e  c #7CB154",
"r  c #4B8F60",
"t  c #4D9262",
"y  c #529461",
"u  c #5C9360",
"i  c #579860",
"p  c #5A9A60",
"a  c #5F986B",
"s  c #619460",
"d  c #62986A",
"f  c #C58C04",
"g  c #C88E06",
"h  c #CD9205",
"j  c #CF930A",
"k  c #D39604",
"l  c #D99700",
"z  c #D79804",
"x  c #DC9C03",
"c  c #D6980D",
"v  c #DD9E09",
"b  c #C78F12",
"n  c #C88F15",
"m  c #C48D1A",
"M  c #D99B13",
"N  c #D4991A",
"B  c #E19F02",
"V  c #E4A103",
"C  c #EBA602",
"Z  c #EEA802",
"A  c #E3A108",
"S  c #EFA908",
"D  c #F4AB02",
"F  c #F8AE02",
"G  c #F3AC0C",
"H  c #F8AE0A",
"J  c #FEB200",
"K  c #FBB10B",
"L  c #E7A516",
"P  c #F4AE15",
"I  c #F1AF1F",
"U  c #FBB214",
"Y  c #F5B11B",
"T  c #FCB31C",
"R  c #CC9623",
"E  c #CC972C",
"W  c #D59B20",
"Q  c #D19D2D",
"!  c #C69335",
"~  c #C09D3F",
"^  c #C9983A",
"/  c #D29B37",
"(  c #D29F3C",
")  c #DDA227",
"_  c #C6A03C",
"`  c #CEA63E",
"'  c #CEA83F",
"]  c #D3A234",
"[  c #DCA934",
"{  c #D4A439",
"}  c #DBA53B",
"|  c #D2AB3D",
" . c #E3A422",
".. c #EDAD26",
"X. c #E4AB2E",
"o. c #EBAD29",
"O. c #F0AE21",
"+. c #F7B227",
"@. c #FBB522",
"#. c #F2B22D",
"$. c #E1A731",
"%. c #E1AB32",
"&. c #E9AE33",
"*. c #E8AA3F",
"=. c #F7B43E",
"-. c #F9B93B",
";. c #8E9A57",
":. c #889959",
">. c #939B56",
",. c #9E9C52",
"<. c #A79C4E",
"1. c #AB9F4F",
"2. c #A29E52",
"3. c #A89E50",
"4. c #AFA04E",
"5. c #B1A04D",
"6. c #B8A24A",
"7. c #AAA054",
"8. c #97A168",
"9. c #81A276",
"0. c #91A677",
"q. c #B1A765",
"w. c #C89740",
"e. c #CD9F4D",
"r. c #C3A445",
"t. c #CDA740",
"y. c #D5A543",
"u. c #D3A84D",
"i. c #D8A948",
"p. c #CCA259",
"a. c #D0A750",
"s. c #DDA953",
"d. c #E1AE43",
"f. c #E8B347",
"g. c #F5BB46",
"h. c #F4BC4C",
"j. c #E8B455",
"k. c #EABD5C",
"l. c #F1BE57",
"z. c #F5BA58",
"x. c #D2AA65",
"c. c #D2AD6C",
"v. c #D5B162",
"b. c #DAB466",
"n. c #D6B168",
"m. c #DBB56E",
"M. c #D2B075",
"N. c #D9B874",
"B. c #D4B37C",
"V. c #D7BB7C",
"C. c #D9BD7F",
"Z. c #E7BD61",
"A. c #ECBF63",
"S. c #E3B96D",
"D. c #EBBF6D",
"F. c #EEBD70",
"G. c #E2BF7E",
"H. c #F0C057",
"J. c #F0C05A",
"K. c #EEC261",
"L. c #EBC26D",
"P. c #F0C166",
"I. c #EBC476",
"U. c #EAC67C",
"Y. c #9BAC81",
"T. c #CDBC87",
"R. c #DABD87",
"E. c #D7BC8A",
"W. c #DEC085",
"Q. c #DCC18C",
"!. c #C9C194",
"~. c #DCC695",
"^. c #D1C59B",
"/. c #DDC799",
"(. c #DFCA9D",
"). c #E4C584",
"_. c #E8C784",
"`. c #E7C885",
"'. c #E9C984",
"]. c #E2C58C",
"[. c #E2C68D",
"{. c #E7C889",
"}. c #E7CA8E",
"|. c #E3C690",
" X c #E4CA93",
".X c #E2CC9B",
/* pixels */
"t t t t t t t t t t t t t t t t t t o $ . t t t t t t t t t t t t t t t t t t t t t t t t t t t t t ",
"t t t t t t t t t t t t t t t t t t t o $ t t t t t t t t t t t t t t t t t t t t t t t t t t t t t ",
"t t t t t t t t t t t t t t t t t t t t t t t t t t t t t t t t t t t t t t t t t t t t t t t t t t ",
"t t t t t t t t t t t t t t t t t t t t t t t y y t t t t t t t t t t t t t t t t t t t t t t t t t ",
"t t t t t t t t t t t t t t t t t t t t t t y 8 7 t t t t t t t t t t t t t t t t t t t t t t t t t ",
"t t t t t t t t t t t t t t t t t t t t 4 t p e 7 t t t t t t t t 4 t t t t t t t t t t t t t t t t ",
"t t t t t t t t t t t t t t t t t t t t 0 8 & w y t t t t t t t t 0 t t t t t t t t t t t t t t t t ",
"t t t t t t t t t t t t t t t t t t t t & 0 1 + t t t t t t t 7 i 0 t t t t t t t t t t t t t t t t ",
"t t t t t t t t t t t t t t t t t t t t $ O O t t t t t t t t 8 : w t t t t t t t t t t t t t t t t ",
"t t t t t t t t t t t t t t t t t t t t t t t t t t t t t t t 8 p y t t t t t t t t t t t t t t t t ",
"t t t t t t t t t t t t t t t t t t t y 6 >.>.>.>.>.>.>.>.6 y t t t t t t t t t t t t t t t t t t t ",
"t t t t t t t t t t t t t t t t t y y 3 r.....o.o.o.o.....r.3 - y t t t t t t t t t t t t t t t t t ",
"t t t t t t t t t t t t t t t t u 3.r.r.o.J D Z Z Z Z D J .._ ~ <.u t t t t t t t t t t t t t t t t ",
"t t t t t t t t t t t t t t t 2 >.%.J H H D V V V V V V D H H J %.>.2 t t t t t t t t t t t t t t t ",
"t t t t t t t t t t t t t t y 2.%.U F V V C D F F F F F C V V F U %.2.y t t t t t t t t t t t t t t ",
"t t t t t t t t t t t t t 2 2.{ S D Z C C D J J J J J J D C C Z D S { 2.2 t t t t t t t t t t t t t ",
"t t t t t t t t t t t t u >.%.S V B Z J J J J J J J J J J J J Z B V S %.>.u t t t t t t t t t t t t ",
"t t t y t t t t t t t y 2.[ L C D F F J J J J D V V D J J J J F F D Z L [ 2.y t t t t t t t t t t y ",
"t t y w t t t t t t 3 2.[ H V C J J J F J J J Z z z C J J F Z F J J V v #.v.0.d t t t t t t t y y 8 ",
"t t y w y : t t t t ;.%.K F V Z J J F V D J J Z z h B F J C z Z J U  .( k._.!.9.t t t t t t t : 8 8 ",
"t t y w : 8 t t t t >...F Z D F J J J D Z C C V z g h z x B C F @.g.S.R.[..X^.9.t t t t t t t : 8 : ",
"t t t : : 8 t t y 6 6.O.Z V F J J J J J D V V x k g h z z V J T -.J.{.(.~.|.W.q.6 y t t t t t y p t ",
"t t t t y y t t s r.Y K Z V F J J J J J J F F B g g x F F F T g.H.K.{.~.N.j.=.#.r.s t t t t t t t t ",
"t t t t t t t t 2 ' J D Z D J J J J J J F D J C h g V J Z ..g.I.{.{.`.I.f. .C F ' 2 t t t t t t t t ",
"t t t t t t t t 2 t.F V Z J J J J J J J C V D V k g x Z k y.L.{. X XI.g.@.V k D ' 2 t t t t t t t t ",
"t t t t t t t t 2 t.F V Z J J J J J J J C x B z g g h j b x.[.U.L.L.h.@.J V k D | 2 t t t t t t t t ",
"t t t t t t t t 2 t.F V Z J J F D J J J F Z Z x h f R y.x.E..X'.Z.d.O.J J V k D t.2 t t t t t t t t ",
"t t t t t t t t 2 t.F V Z J J D V D J J F F F L W R i.L.[./.~.).b.E C J J V k D t.2 t t t t t t t t ",
"t t t t t t t t 2 t.F V Z J J D x B V V x l c { u.a.N.[.C.c.p.e.^ n C J J V k D t.2 t t t t t t t t ",
"t t t t t t t t 2 ' J Z Z F J F C C C C ) ] { v.V.C.~..XS.$.x x x x D J Z V V F ' 2 t t t t t t t t ",
"t t w w t t y t s r.Y J Z V F J J U U @.h.k.A.).(./.(. Xz.J J J J J J D z V J Y r.s t t t t t t t t ",
"t t y 0 9 7 0 p y :.r.I V z F J U -.g.h.I.}. X.X/.M.m.L.-.J J J J J J D h V I r.:.y t y y t t t t t ",
"t t t y w 0 : t t t >...Z x C P -.P.I.U. X(.Q.R.B.w.Q d.+.J J J J J F C x Z ..>.t t t 7 q : t : y t ",
"t t t $ X = $ t t t >.X.J D M } A.}..X.X.X[.s./ ! m b N G J J J J J V z D J X.>.t t t t 7 q 7 q 4 t ",
"t t t t @ $ t t t t 5 1.%.Y } n.{..X.X_.U.D.o.l f f l C F J J J J J x k F %.1.5 t t t t t , q = t t ",
"t t t t t t t t t t t u 4.d.b.Q.(.~.G.l.h.g.T C z z C J J J J F D D B M X.4.u t t t t t t   & $ t t ",
"t t t t t t t t t t t t 2 8.T.(./.c.} +.@.T J J F F J J J J J B k k V X.,.2 t t t t t t t $ $ t t t ",
"t t t t t t t t t t t t t a Y.T.F.*.B B B C J J J J J J C B V V V A ] 4.2 t t t t t t t t t t t t t ",
"t t t t t t t t t t t t t t y 7.&.U D z h x D F F F F D z h z D K o.1.u t t t t t t t t t t t t t t ",
"t t t t t t t t t t t t t t t 3 2.X.J D D C z k z k k z C D D J X.2.3 t t t t t t t t t t t t t t t ",
"t t t t t t t t t t t t t t t t s 5.t.| ..F V x x x x V F ..{ ` 5.s t t t t t t t t t t t t t t t t ",
"t t t t t t t t t t t t t t t t y u u 5 t.I I O.O.O.O.I I ` > % ; y t t t t t t t t t t t t t t t t ",
"t t t t t t t t t t t t t t t t t t t y :.2.2.2.2.2.2.2.2.:.* r t t t t t t t t t t t t t t t t t t ",
"t t t t t t t t t t t t t t t t t t t t t t t t t t t t t t t t t t t t t t t t t t t t t t t t t t ",
"t t t t t t t t t t t t t t t t t t t t t t t t t t 8 y t t t t t t t t t t t t t t t t t t t t t t ",
"t t t t t t t t t t t t t t t t t y t t t t t t t t 0 0 t t y t t t t t t t t t t t t t t t t t t t ",
"t t t t t t t t t t t t t t t t : 8 t t t t t t t t 8 0 $ 7 7 t t t t t t t t t t t t t t t t t t t ",
"t t t t t t t t t t t t t t t t : 8 y y t t t t t t t 1 , 0 : t t t t t t t t t t t t t t t t t t t ",
"t t t t t t t t t t t t t t t t : 8 8 : t t t t t t t # < = $ t t t t t t t t t t t t t t t t t t t ",
"t t t t t t t t t t t t t t t t y : 8 : t t t t t t t t @ $ t t t t t t t t t t t t t t t t t t t t "
};
