/* XPM */
static char *_f81b63d1dd6421295ed7f4f09c92d38gxByHoDw3tW71IbY[] = {
/* columns rows colors chars-per-pixel */
"50 50 55 1 ",
"  c #407751",
". c #417A52",
"X c #437E55",
"o c #447F56",
"O c #4E814F",
"+ c #458157",
"@ c #4B8051",
"# c #4B8354",
"$ c #4F8A57",
"% c #468358",
"& c #468459",
"* c #49875A",
"= c #498A5D",
"- c #4A8C5E",
"; c #4E8D5D",
": c #538953",
"> c #568B52",
", c #548C56",
"< c #5B9153",
"1 c #5E9251",
"2 c #5A9054",
"3 c #5D9456",
"4 c #5A955A",
"5 c #5E995B",
"6 c #5A9A5F",
"7 c #5C9B5F",
"8 c #5D9C5E",
"9 c #609351",
"0 c #609654",
"q c #639853",
"w c #659952",
"e c #699D52",
"r c #689D54",
"t c #629F5D",
"y c #63A05D",
"u c #67A25C",
"i c #69A359",
"p c #6BA55B",
"a c #6CA65A",
"s c #68A35C",
"d c #6FA859",
"f c #73A854",
"g c #74AB57",
"h c #75AD57",
"j c #78AF56",
"k c #73AB58",
"l c #7CB154",
"z c #4B8F60",
"x c #4C8F60",
"c c #4B9162",
"v c #4D9262",
"b c #519561",
"n c #549661",
"m c #579860",
"M c #5A9A60",
/* pixels */
"vvvvvvvvvvvvvvvvvv+=.vvvvvvvvvvvvvvvvvvvvvvvvvvvvv",
"vvvvvvvvvvvvvvvvvvv+-vvvvvvvvvvvvvvvvvvvvvvvvvvvvv",
"vvvvvvvvvvvvvvvvvvvvvvvvvvvvvvvvvvvvvvvvvvvvvvvvvv",
"vvvvvvvvvvvvvvvvvvvvvvvbnvvvvvvvvvvvvvvvvvvvvvvvvv",
"vvvvvvvvvvvvvvvvvvvvvvbauvvvvvvvvvvvvvvvvvvvvvvvvv",
"vvvvvvvvvvvvvvvvvvvvtvMluvvvvvvvvtvvvvvvvvvvvvvvvv",
"vvvvvvvvvvvvvvvvvvvvhi,knvvvvvvvvhvvvvvvvvvvvvvvvv",
"vvvvvvvvvvvvvvvvvvvv:he$vvvvvvvumgvvvvvvvvvvvvvvvv",
"vvvvvvvvvvvvvvvvvvvv-@#vvvvvvvva6kvvvvvvvvvvvvvvvv",
"vvvvvvvvvvvvvvvvvvvvvvvvvvvvvvvpMbvvvvvvvvvvvvvvvv",
"vvvvvvvvvvvvvvvvvvvvvvvvvvvvvvvvvvvvvvvvvvvvvvvvvv",
"vvvvvvvvvvvvvvvvvvvvvvvvvvvvvv-zvvvvvvvvvvvvvvvvvv",
"vvvvvvvvvvvvvvvvvvvvvvvvvvvvv-%%xvvvvvvvvvvvvvvvvv",
"vvvvvvvvvvvvvvvvvvvvvvvvvvvvvz%&vvvvvvvvvvvvvvvvvv",
"vvvvvvvvvvvvvvvvvvvvvvvvvvvvvv-xvvvvvvvvvvvvvvvvvv",
"vvvvvvvvvvvvvvvvvvvvvvvvvvvvvvvvvvvvvvvvvvvvvvvvvv",
"vvvvvvvvvvvvvvvvvvvvvvvvvvknvvvvvvvvvvvvvvvvvvvvvv",
"vvvnvvvvvvvvvvvvbnvvvvvvvvghvbbvvvvvvvvvvvvvvvvvvb",
"vvbkvvvvvvvvvvvv7acvvvvvvvph;psvvvvvvvvvvvvvvvvbnp",
"vvbkn6vvvvvvvvvv6p6nvvvvvvvqwg4vvvvvvvvvvvvvvvv7pp",
"vvbk8pvvvvvvvvvv7pp8vvvvvvv*1,=vvvvvvvvvvvvvvvv7a6",
"vvv68pvvvvvvvvvvbmp8vvvvvvvv=-vvvvvvvvvvvvvvvvvbMv",
"vvvvbbvvvvvvvvvvvvbbvvvvvvvvvvvvvvvvvvvvvvvvvvvvvv",
"vvvvvvvvvvvvvvvvvvvvvvvvvvvvvvvvvvvvvvvbvvvvvvvvvv",
"vvvvvvvvvvvuuvvvvvvvvvvvvvvvvvvvvvvvvvndnvvvvvvvvv",
"vvvvvvvvvv6iiMvvvvvvvvvvvvvvvvvvvvvvvvptpvvvvvvvvv",
"vvvvvvvvvvv76vvvvvvvvvvvvvvvvvvvvvvvvvvuvvvvvvvvvv",
"vvvvvvvvvvvvvvvvvvvvvvvvvvvvvvvvvvvvvvvvvvvvvvvvvv",
"vvvvvvvvvvvvvvvvvvvvvvvvvvvvvvvvvvvvvvvvvvvvvvvvvv",
"vvvvvvvvvvvvvvvvvvvvovvvvvvvvvvvvvvvvvvvvvvvvvvvvv",
"vvkkvvbvvvvvvvvvvvv+=Xvvvvvvvvvvvvvvvvvvvvvvvvvvvv",
"vvbhduhMvvvvvvvvvvvvXvvvvvvvvvvvvnvvvvvvvvvbnvvvvv",
"vvvnfg6vvvvvvvvvvvvvvvvvvvvvvvvnbgvvvvvvvvvuj8v6nv",
"vvv-O2=vvvvvvvvvvvvvvvvvvvvvvvva6hvvvvvvvvvvujujtv",
"vvvv%=vvvvvvvvvvvvvvvvvvvvvvvvva6tvvvvvvvvvvv0j3vv",
"vvvvvvvvvvvvvvvvvvvvvvvvvvvvvvv6bvvvvvvvvvvvv >=vv",
"vvvvvvvvvvvvvvvvvvvvvvmuvvvvvvvvvvvvvvvvvvvvv--vvv",
"vvvvvvvvvvvvvvvvvvvvvbaytvvvvvvvvvvvvvvvvvvvvvvvvv",
"vvvvvvvvvvvvvvvvvvvvvv6pvvvvvvvvvvvvvvvvvvvvvvvvvv",
"vvvvvvvvvvvvvvvvvvvvvvvvvvvvvvxvvvvvvvvvvvvvvvvvvv",
"vvvvvvvvvvvvvvvvvvvvvvvvvvvvvz%&vvvvvvvvvvvvvvvvvv",
"vvvvvvvvvvvvvvvvvvvvvvvvvvvvv-%%xvvvvvvvvvvvvvvvvv",
"vvvvvvvvvvvvvvvvvvvvvvvvvvvvvv-zvvvvvvvvvvvvvvvvvv",
"vvvvvvvvvvvvvvvvvvvvvvvvvvvvvvvvvvvvvvvvvvvvvvvvvv",
"vvvvvvvvvvvvvvvvvvvvvvvvvvabvvvvvvvvvvvvvvvvvvvvvv",
"vvvvvvvvvvvvvvvvvbvvvvvvvvghvvbvvvvvvvvvvvvvvvvvvv",
"vvvvvvvvvvvvvvvv6pvvvvvvvvah;uuvvvvvvvvvvvvvvvvvvv",
"vvvvvvvvvvvvvvvv6pnbvvvvvvvr9h5vvvvvvvvvvvvvvvvvvv",
"vvvvvvvvvvvvvvvv7pp8vvvvvvv*w<=vvvvvvvvvvvvvvvvvvv",
"vvvvvvvvvvvvvvvvb6p8vvvvvvvv&=vvvvvvvvvvvvvvvvvvvv"
};
