/* XPM */
static char *_24db3d9b5994039dca76042dc8c1c516Nv8Rq0uNhdMjoEs[] = {
/* columns rows colors chars-per-pixel */
"50 50 43 1 ",
"  c #423F3D",
". c #44413F",
"X c #464341",
"o c #494543",
"O c #4C4946",
"+ c #4F4C49",
"@ c #514E4B",
"# c #55524E",
"$ c #565450",
"% c #595652",
"& c #5B5956",
"* c #5E5C5A",
"= c #615F5D",
"- c #61605E",
"; c #656564",
": c #696667",
"> c #676867",
", c #696768",
"< c DimGray",
"1 c #6C686B",
"2 c #6B6B6C",
"3 c #6D696C",
"4 c #6B6C6D",
"5 c #6D6C6E",
"6 c #706B6F",
"7 c #6F6E71",
"8 c #706F72",
"9 c #717073",
"0 c #737275",
"q c #757377",
"w c #767378",
"e c #777478",
"r c #787379",
"t c #79767B",
"y c #7A777D",
"u c #7C767D",
"i c #7C787E",
"p c #7D787F",
"a c #7D7980",
"s c #807B82",
"d c #817C84",
"f c #847E87",
"g c #857F88",
/* pixels */
"%%%%%%%%%%%%+o#%%%%%%%%%%%%%%%%%%%%%%%%%=<<;&%%%%%",
"=---*%%#@+@++@&-=====;363333666363;=====;<<;&*-===",
"52<<;&&$oX.o@&;2555550sddddddddddde55555555;*;<555",
"aq<<<;;-#oX@*;<0paaaaadgffffffffgfsaaaaaaaaq<>7yaa",
"fa05<<<;&@@*;<<qdgffffffffffffffffffffffffgaq59dgf",
"ffa8<<<;&$&;<<<qdffffffffffffdddffffffffffffdq0dff",
"fgd9<<<;&%*;<<<qdffffffffffffaeafffffffffffffaadff",
"fgd9<<<;&#%;><<9pdffffffffgdaq5pffffffffffffffffff",
"dda9<<<;%OO$;<<<7pdffffffdds0<2ydfffffffffffffffff",
"wwq5;-=&+X.O$==;<0ydggggdtwq5;;5ydgfffgggggggggggg",
";;;;*$$#Oooo@%%*;;5tuuuur<;;;-&;8paaaaauuuuuuuuuuu",
"&&&&#O#%$$$$%%%&&&&======&&&&&&;<555553;==========",
"$$$$#@&--------&%$####$$%%#@#%%*------*%$$%%%%$$##",
"=====-<55555555,======&&&&#O#%%%%$$$$%%&&&%%%&&&*=",
"uuuuuuaaaaaaaaapuuuuuq<;;;*$%%%%#Oooo@&;;;&%%-;;8y",
"gggggggffffffffggggggdtqwq81;*==&+X.O$;89<;*-5qeag",
"ffffffffffffffffffffffddddda0<<<;%OO$;8at2<<5ydddf",
"ffffffffffffffffffffffffffgdaw2<;&#$;8ady2<8pdffff",
"fffffffffffffffffffffffsadffgy4<;&%&<tffaq0ydfffff",
"ffffffffffffffffffffffde9adfdy2<;%%&>tdfddddffffff",
"ffffffffffffffffffffgse540pdy8<;&@#&<tfgggggffffff",
"aaaasfgdaaaadfggfsaaat5;;<9w1;;&+X@&;0aaaaaaaaaaaa",
"5555wddp8555tdddsq5555<-*;;=&&%+XX@%&;555555555555",
"===-;36<;=--:3663;===-=&&*%OO@#@+++O+$============",
"%%%$#$$######$$%%%%%%%%%%%@oo@&&&&$+o@%%%%%%%%%%%%",
"%%$Oooooooooooo@%%%%%%%%%%%$#&;;;;;-%$%%%%%%%%%%%%",
"=-*#OOOOOX   .O$=-====-:336668we02<>;=============",
"55<=&&&&%@X..o$-<555555tddddddddp85555555555555555",
"aay3;;;;;&@XO$;;5taaaaadfffffffgdaaaaaaaaaaaaaaaaa",
"fgdt8<<<<-$+$->5wsggggffffffggfgfffgggggggggggffff",
"fffdy5<<<=%%=<<qdfddddfffffffffffffdddddddddddffff",
"ffffdy8<<=%%-<<wdgaq0tdffffffffffffsw0000000qaffff",
"ffffdp8<;&#%*;<0pae55edgfffffffffffsq982<<790affff",
"ddddy5<;&+O#%*;<35<2tsdddddddddddffddda8<5ydddffdd",
"wwww5-=&+X.O#%*=**;<9ewwwwwwwwwqydggggdpyydggggfpw",
";;;;*$$#Oooo+#%%%%*;;;;;;;;;;;;;3taaaaaaaaaaapuy8;",
"&&&&#O#%##$#+O#%%%%&&&&&&&&&&&&&&=,5555555555;==*&",
"%%%%#@#%%*--%@#%%%%$$%%%%%%%%%%%#@&---------*$OO#%",
"&&&&&&%%&;<<;&&*======&&&&&&&&&&$O@%%%$$$$%%%+oo#&",
";;;;;;*&;<<<<;;8yuuuuq<;;;;;;;;;-$$%%@oooO#%%###*;",
"wwww9<;;<<50wwwpfggggdtqwwwwwwww03;=*$O.X+&===;18q",
"ddddy5<<550addddffffffddddddddddddw2<-$OO%;<<<0add",
"ffffdp87ypadgfffffffffffffffffffgfst5>;%#&;<2wadgf",
"fffffdttdgffffffffffffffffffffffgfst5<;&%&;<4ygfff",
"ffffffddfffffffffffffffffffffffdddw4<<;&%%;<2ydfff",
"fffffffffffffffffffffffffffffgdyqq5<<<;&#@&;<8tdgf",
"aaaaaadfffffdaaaaaaaaaaaaaaaaap9<<<<<<;%OX+&;<7yaa",
"555557pdddddt555555555555555555<<<<<<;%OX.X+&;<555",
"=====;7eeeew3-=================-----=%OXo+@++&-===",
"%%%%%&;<<<<<-%%%%%%%%%%%%%%%%%%%%%%%%+..O%%@o@%%%%"
};
